<mxfile host="app.diagrams.net" modified="2023-09-12T17:49:33.374Z" agent="Mozilla/5.0 (Windows NT 10.0; Win64; x64; rv:109.0) Gecko/20100101 Firefox/117.0" version="21.7.1" etag="q6cGlgGtailqlnAu2UBZ" type="github">
  <diagram name="Страница — 1" id="CudpxJJkEGKN1i4Y7TCB">
    <mxGraphModel>
      <root>
        <mxCell id="0" />
        <mxCell id="1" parent="0" />
      </root>
    </mxGraphModel>
  </diagram>
</mxfile>
